HIERARCHY
ROOT Hips
{
  OFFSET 15.5333 85.8822 -28.0531
  CHANNELS 6 Xposition Yposition Zposition Zrotation Xrotation Yrotation
  End Site
  {
    OFFSET 0 0 0
  }
}
MOTION
Frames:	182
Frame Time:	0.00833333
22.8226 85.7907 -176.432 82.9406 -12.7784 94.4798 
22.9134 85.7797 -176.674 82.9469 -11.8852 94.5608 
23.0046 85.7706 -176.916 82.9549 -10.9782 94.6117 
23.0898 85.7649 -177.148 82.9514 -10.0601 94.6514 
23.1624 85.7642 -177.364 82.9223 -9.13376 94.6931 
23.2162 85.7716 -177.549 82.8493 -8.1952 94.6776 
23.256 85.7852 -177.713 82.7457 -7.25263 94.6024 
23.2927 85.7997 -177.878 82.6399 -6.32475 94.5452 
23.3366 85.8097 -178.065 82.5566 -5.42554 94.5667 
23.3943 85.8143 -178.289 82.5035 -4.52637 94.6411 
23.4588 85.816 -178.535 82.4638 -3.63069 94.703 
23.5211 85.8153 -178.784 82.4239 -2.7796 94.7677 
23.5719 85.8122 -179.016 82.3694 -1.98859 94.8765 
23.6054 85.8051 -179.228 82.2801 -1.16616 95.0789 
23.6278 85.7946 -179.429 82.1625 -0.240772 95.3156 
23.6474 85.7838 -179.62 82.0449 0.739083 95.511 
23.6726 85.7763 -179.801 81.9598 1.68091 95.6478 
23.7129 85.7697 -179.968 81.9478 2.56227 95.7856 
23.7613 85.7632 -180.123 81.9795 3.46113 95.9438 
23.8019 85.7627 -180.269 81.9847 4.39522 96.0926 
23.8187 85.7737 -180.412 81.895 5.37112 96.1949 
23.7961 85.8027 -180.547 81.6555 6.39325 96.2617 
23.7464 85.8449 -180.675 81.3152 7.45224 96.3214 
23.6955 85.8897 -180.801 80.9632 8.52331 96.3626 
23.6692 85.9268 -180.934 80.6891 9.57769 96.3799 
23.6757 85.9544 -181.072 80.5162 10.5978 96.4175 
23.7008 85.9779 -181.213 80.3931 11.5926 96.5083 
23.7366 85.9966 -181.36 80.298 12.5718 96.6223 
23.775 86.0102 -181.513 80.2121 13.546 96.7151 
23.8178 86.0133 -181.677 80.1344 14.5021 96.7971 
23.868 86.0081 -181.85 80.0712 15.435 96.9055 
23.9194 86.0045 -182.024 80.0176 16.3694 97.0169 
23.9661 86.0126 -182.194 79.9713 17.3317 97.0978 
24.0119 86.0305 -182.343 79.9511 18.3081 97.1759 
24.0583 86.0545 -182.48 79.951 19.2902 97.2626 
24.0954 86.0915 -182.633 79.9371 20.3141 97.2779 
24.1133 86.1486 -182.83 79.8822 21.4162 97.122 
24.1019 86.2349 -183.097 79.7923 22.6233 96.6674 
24.0688 86.3444 -183.411 79.7022 23.8944 95.9439 
24.0314 86.4608 -183.733 79.6238 25.1684 95.1005 
24.0069 86.5681 -184.021 79.5492 26.4043 94.33 
23.9932 86.663 -184.28 79.4503 27.6079 93.6959 
23.9833 86.7539 -184.527 79.331 28.8039 93.1182 
23.9871 86.8414 -184.738 79.2151 29.997 92.6084 
24.0146 86.9263 -184.889 79.1258 31.1912 92.1778 
24.08 87.0163 -184.943 79.0613 32.387 91.8698 
24.1742 87.1086 -184.923 78.9955 33.5894 91.699 
24.2718 87.1877 -184.897 78.9195 34.8077 91.6266 
24.3471 87.238 -184.934 78.8286 36.0495 91.6045 
24.3852 87.2467 -185.073 78.7098 37.3434 91.6639 
24.4026 87.2249 -185.27 78.5552 38.6763 91.8399 
24.4204 87.1934 -185.473 78.3782 39.9926 92.0726 
24.4602 87.1727 -185.629 78.2005 41.2374 92.2881 
24.5284 87.1685 -185.721 78.0298 42.3914 92.4626 
24.6132 87.1696 -185.778 77.855 43.4856 92.635 
24.7092 87.172 -185.816 77.676 44.5411 92.8163 
24.8105 87.1711 -185.852 77.4916 45.5789 93.0194 
24.9187 87.1668 -185.885 77.2985 46.5962 93.2504 
25.0357 87.1611 -185.907 77.0964 47.5843 93.504 
25.1569 87.1531 -185.926 76.8877 48.5554 93.777 
25.2775 87.142 -185.949 76.6749 49.522 94.066 
25.3929 87.1267 -185.975 76.4547 50.4947 94.3769 
25.5067 87.1081 -186.002 76.2248 51.4644 94.7121 
25.6266 87.0878 -186.033 75.9897 52.4131 95.0607 
25.7603 87.0677 -186.071 75.7558 53.3231 95.41 
25.9145 87.0457 -186.121 75.5293 54.1776 95.7518 
26.0835 87.0216 -186.179 75.3071 54.99 96.0922 
26.2567 87.0004 -186.238 75.0823 55.7891 96.4389 
26.4235 86.987 -186.288 74.8457 56.603 96.802 
26.5788 86.9865 -186.327 74.6032 57.451 97.1872 
26.729 86.9949 -186.359 74.354 58.314 97.5905 
26.8808 87.0039 -186.387 74.0797 59.1629 98.0082 
27.0407 87.005 -186.414 73.7634 59.9687 98.4347 
27.2112 86.9912 -186.439 73.3738 60.7129 98.8772 
27.3885 86.9688 -186.462 72.9295 61.4144 99.3348 
27.57 86.9485 -186.483 72.4917 62.101 99.7872 
27.753 86.9411 -186.504 72.1217 62.8008 100.213 
27.9356 86.9526 -186.527 71.8605 63.5346 100.594 
28.1197 86.9763 -186.551 71.6707 64.2836 100.939 
28.308 87.0037 -186.572 71.4956 65.0171 101.276 
28.5035 87.0266 -186.588 71.2765 65.7035 101.635 
28.7101 87.0424 -186.598 70.9992 66.3237 102.026 
28.9253 87.0557 -186.601 70.6956 66.8978 102.43 
29.1418 87.0688 -186.603 70.3749 67.4539 102.839 
29.3521 87.084 -186.605 70.0457 68.02 103.243 
29.5575 87.1044 -186.608 69.7369 68.5989 103.609 
29.7609 87.1279 -186.61 69.4378 69.1777 103.95 
29.9573 87.1494 -186.612 69.0911 69.7603 104.328 
30.1419 87.164 -186.614 68.6319 70.3502 104.814 
30.3151 87.1697 -186.618 68.0192 70.9506 105.446 
30.4789 87.1693 -186.622 67.2776 71.5572 106.198 
30.6308 87.1651 -186.626 66.4356 72.1619 107.053 
30.7679 87.1594 -186.63 65.5254 72.7572 107.987 
30.8899 87.1529 -186.634 64.5403 73.342 109.011 
30.998 87.1444 -186.639 63.4518 73.9183 110.148 
31.0924 87.1331 -186.644 62.2641 74.4829 111.392 
31.1729 87.1181 -186.65 60.984 75.0328 112.732 
31.2401 87.0968 -186.658 59.6019 75.5624 114.188 
31.294 87.0703 -186.667 58.1027 76.0725 115.774 
31.3332 87.0441 -186.677 56.4875 76.571 117.467 
31.3567 87.0237 -186.686 54.757 77.0664 119.244 
31.3613 87.0087 -186.694 52.8913 77.5583 121.115 
31.3487 86.9967 -186.703 50.8778 78.0416 123.104 
31.3243 86.9905 -186.71 48.7259 78.5189 125.216 
31.2939 86.9927 -186.713 46.4421 78.9929 127.458 
31.2479 87.0079 -186.71 43.9372 79.4961 129.921 
31.187 87.0335 -186.704 41.1716 80.0127 132.637 
31.132 87.0608 -186.697 38.2898 80.4765 135.462 
31.1039 87.0814 -186.691 35.544 80.8273 138.143 
31.1097 87.0926 -186.689 33.1223 81.0445 140.487 
31.1377 87.099 -186.689 31.0017 81.1715 142.516 
31.1809 87.1032 -186.688 29.1609 81.2481 144.271 
31.2325 87.1078 -186.682 27.5346 81.312 145.829 
31.3002 87.1144 -186.669 26.2647 81.3536 147.058 
31.3847 87.1214 -186.65 25.3677 81.3657 147.931 
31.4677 87.1262 -186.631 24.5476 81.385 148.734 
31.5309 87.1264 -186.62 23.4908 81.4453 149.772 
31.5655 87.1209 -186.618 21.956 81.5643 151.28 
31.5825 87.1112 -186.623 20.118 81.7167 153.089 
31.5937 87.0986 -186.63 18.2978 81.8736 154.888 
31.6108 87.0848 -186.637 16.8627 82.0118 156.323 
31.6395 87.0684 -186.643 15.9703 82.1345 157.245 
31.6727 87.0493 -186.649 15.4343 82.2556 157.831 
31.7028 87.0303 -186.656 15.1322 82.3705 158.19 
31.7223 87.0145 -186.664 14.9359 82.4734 158.436 
31.7292 87.0016 -186.674 14.8906 82.5612 158.522 
31.7275 86.9904 -186.685 15.0526 82.6377 158.398 
31.7186 86.9824 -186.695 15.2995 82.7079 158.186 
31.7039 86.9791 -186.701 15.5037 82.7767 158.012 
31.6775 86.9819 -186.701 15.4832 82.8451 158.058 
31.6407 86.9897 -186.698 15.3516 82.9106 158.21 
31.6057 87.0004 -186.693 15.4295 82.9729 158.148 
31.5847 87.0123 -186.689 16.0496 83.031 157.536 
31.5891 87.0256 -186.688 17.6339 83.0692 155.951 
31.6099 87.041 -186.688 19.902 83.0847 153.674 
31.6279 87.0574 -186.686 22.146 83.1019 151.418 
31.6244 87.0736 -186.683 23.6853 83.1576 149.866 
31.5832 87.0913 -186.674 24.073 83.299 149.469 
31.5182 87.1104 -186.664 23.7334 83.4998 149.799 
31.455 87.1273 -186.652 23.3347 83.6921 150.182 
31.4193 87.1381 -186.644 23.6323 83.8087 149.858 
31.4224 87.1401 -186.64 24.9392 83.8098 148.511 
31.4492 87.1359 -186.638 26.7799 83.7333 146.619 
31.4855 87.1298 -186.636 28.7904 83.63 144.554 
31.517 87.126 -186.627 30.6834 83.5553 142.613 
31.5422 87.1259 -186.61 32.5327 83.5256 140.718 
31.5679 87.1271 -186.587 34.4643 83.5098 138.743 
31.5927 87.1284 -186.562 36.3223 83.496 136.848 
31.6154 87.1283 -186.537 37.9396 83.4754 135.206 
31.6342 87.127 -186.514 39.2266 83.4529 133.91 
31.6502 87.1248 -186.491 40.2935 83.4342 132.846 
31.6666 87.1215 -186.465 41.263 83.412 131.888 
31.6865 87.1166 -186.432 42.2513 83.378 130.917 
31.711 87.1103 -186.392 43.2885 83.3297 129.903 
31.7385 87.1027 -186.345 44.3064 83.2719 128.915 
31.7673 87.0932 -186.294 45.2704 83.2063 127.987 
31.7959 87.0813 -186.24 46.1481 83.1349 127.151 
31.8235 87.0681 -186.183 46.9426 83.0583 126.402 
31.851 87.0534 -186.123 47.6679 82.9759 125.726 
31.8796 87.0349 -186.06 48.3111 82.8883 125.14 
31.9101 87.0101 -185.994 48.861 82.7962 124.659 
31.9393 86.9806 -185.927 49.3346 82.7056 124.25 
31.9677 86.947 -185.859 49.7362 82.6147 123.913 
32.0026 86.9053 -185.785 50.036 82.5121 123.709 
32.0511 86.8515 -185.7 50.2079 82.3864 123.7 
32.1192 86.7872 -185.603 50.2953 82.2294 123.849 
32.2018 86.7137 -185.498 50.3105 82.0487 124.127 
32.2891 86.6266 -185.383 50.1886 81.8569 124.592 
32.3717 86.5216 -185.258 49.8695 81.6659 125.298 
32.4471 86.3951 -185.122 49.2665 81.4792 126.342 
32.5205 86.2502 -184.974 48.4676 81.2872 127.637 
32.5934 86.0927 -184.82 47.6639 81.0828 128.965 
32.6672 85.9283 -184.667 47.0308 80.862 130.125 
32.743 85.7525 -184.516 46.6423 80.6213 131.046 
32.8198 85.5643 -184.365 46.389 80.3653 131.848 
32.8961 85.3745 -184.209 46.1627 80.102 132.622 
32.9704 85.1938 -184.042 45.8616 79.8391 133.452 
33.0416 85.0193 -183.864 45.4769 79.5726 134.347 
33.1107 84.8472 -183.676 45.0618 79.2999 135.261 
33.1795 84.6869 -183.481 44.6106 79.0295 136.193 
33.2501 84.5479 -183.279 44.1139 78.7699 137.145 
33.3246 84.4311 -183.069 43.5224 78.5148 138.178 
